<?xml version="1.0" standalone="no"?>
<!DOCTYPE svg PUBLIC "-//W3C//DTD SVG 20010904//EN"
 "http://www.w3.org/TR/2001/REC-SVG-20010904/DTD/svg10.dtd">
<svg version="1.0" xmlns="http://www.w3.org/2000/svg"
 width="650.000000pt" height="650.000000pt" viewBox="0 0 650.000000 650.000000"
 preserveAspectRatio="xMidYMid meet">
<metadata>
Created by potrace 1.11, written by Peter Selinger 2001-2013
</metadata>
<g transform="translate(0.000000,650.000000) scale(0.100000,-0.100000)"
fill="#000000" stroke="none">
<path d="M1035 5938 c-2 -7 -9 -33 -15 -58 -26 -104 -115 -297 -168 -361 -29
-36 -108 -123 -120 -133 -8 -6 -27 -23 -43 -38 -15 -16 -31 -28 -34 -28 -2 0
-15 -9 -28 -20 -78 -68 -292 -158 -413 -175 -93 -13 -84 16 -84 -276 l0 -259
358 0 357 0 -1 -1190 -2 -1190 441 2 440 3 1 1425 1 1425 1025 1 c564 1 1039
2 1056 3 l30 1 0 440 0 440 -1398 0 c-1110 0 -1399 -3 -1403 -12z"/>
<path d="M4250 5354 l0 -594 420 0 420 0 0 149 c0 110 3 150 13 153 6 3 98 4
202 4 l190 -1 3 -207 2 -208 -1680 0 -1680 0 0 -1220 0 -1220 420 0 420 0 0
775 0 775 635 0 635 0 0 -775 0 -775 1045 0 1045 0 0 725 0 725 -417 -2 -418
-3 -3 -280 -2 -280 -203 5 -202 5 -3 328 -2 327 625 0 625 0 0 1094 0 1093
-1045 0 -1045 0 0 -593z"/>
<path d="M1413 1882 l-93 -3 0 -724 c0 -573 3 -725 13 -725 48 0 3211 0 3560
0 l437 0 0 85 c0 47 -3 85 -7 86 -5 1 -837 2 -1849 3 -1696 2 -1844 3 -1867
19 -24 15 -68 85 -45 71 7 -5 9 -1 5 9 -10 25 8 64 39 84 25 16 130 17 1858
19 1007 1 1839 3 1849 3 15 1 17 13 17 104 l0 102 -1460 0 c-803 0 -1460 3
-1460 8 0 4 -8 4 -17 -1 -10 -4 -36 -7 -58 -5 -45 4 -176 5 -191 2 -5 -1 -13
0 -19 1 -23 4 -136 1 -144 -5 -5 -3 -12 -1 -15 4 -4 6 -18 6 -36 1 -16 -5 -32
-5 -34 -1 -5 8 -112 5 -126 -4 -5 -3 -11 -1 -14 4 -4 6 -18 6 -36 1 -18 -5
-30 -5 -30 0 0 6 -10 6 -24 0 -13 -5 -27 -6 -30 -2 -4 3 -16 7 -28 9 -29 5
-55 29 -65 61 -10 31 -10 38 4 72 10 22 53 67 53 55 0 -2 10 -1 23 4 12 5 32
5 45 0 13 -5 22 -5 22 1 0 6 9 6 23 2 22 -9 75 -7 84 2 3 3 16 1 29 -4 14 -6
26 -6 29 1 4 5 11 6 17 3 14 -9 108 -11 108 -2 0 4 14 3 30 -2 18 -5 28 -5 25
1 -3 5 1 6 10 3 23 -9 144 -10 138 -2 -2 5 6 4 19 -1 21 -8 67 -6 76 4 2 2 15
0 28 -5 13 -5 25 -6 28 -2 2 4 677 7 1500 7 l1496 0 0 115 0 115 -1836 -2
c-1222 -2 -1842 1 -1855 7 -10 6 -35 11 -54 12 l-35 1 0 82 0 82 53 7 c28 4
169 9 312 12 296 4 2992 4 3248 -1 l168 -3 -3 111 c-3 101 -5 110 -23 114 -22
5 -3745 10 -3892 5z"/>
<path d="M5494 1867 c-2 -7 -5 -334 -6 -728 l-3 -716 47 1 c26 0 44 -3 40 -8
-3 -6 3 -6 14 -2 28 11 74 14 74 4 0 -5 8 -5 18 -1 9 5 28 8 42 6 14 -1 34 -3
45 -4 11 0 37 1 58 4 27 4 36 3 31 -5 -5 -8 -1 -9 12 -3 10 4 39 9 64 10 143
9 277 124 329 284 7 23 11 172 11 445 l-1 411 -27 67 c-19 47 -44 85 -83 125
-50 52 -121 100 -142 95 -4 -1 -20 4 -35 12 -36 19 -481 21 -488 3z"/>
<path d="M1105 1804 c-98 -85 -441 -338 -749 -552 -96 -66 -104 -75 -100 -100
3 -14 6 -27 7 -28 1 0 49 -37 107 -81 58 -43 227 -171 375 -283 149 -112 298
-225 333 -252 37 -28 68 -45 77 -42 13 5 15 91 13 687 -2 443 -6 681 -13 683
-5 2 -28 -13 -50 -32z"/>
</g>
</svg>
